<?xml version="1.0" encoding="UTF-8" standalone="no"?>
<!DOCTYPE svg PUBLIC "-//W3C//DTD SVG 1.1//EN" "http://www.w3.org/Graphics/SVG/1.1/DTD/svg11.dtd">
<svg width="100%" height="100%" viewBox="0 0 128 128" version="1.1" xmlns="http://www.w3.org/2000/svg" xmlns:xlink="http://www.w3.org/1999/xlink" xml:space="preserve" xmlns:serif="http://www.serif.com/" style="fill-rule:evenodd;clip-rule:evenodd;stroke-linejoin:round;stroke-miterlimit:2;">
    <path d="M128,16C128,7.169 120.831,0 112,0L16,0C7.169,0 0,7.169 0,16L0,112C0,120.831 7.169,128 16,128L112,128C120.831,128 128,120.831 128,112L128,16Z" style="fill:rgb(27,47,73);"/>
    <g transform="matrix(8,0,0,8,-0.254179,0.002)">
        <path d="M4.5,3C3.672,3 3,3.672 3,4.5L3,5.5C3,5.776 2.776,6 2.5,6C2.224,6 2,5.776 2,5.5L2,4.5C2,3.119 3.119,2 4.5,2L5.5,2C5.776,2 6,2.224 6,2.5C6,2.776 5.776,3 5.5,3L4.5,3ZM13,4.5C13,3.672 12.328,3 11.5,3L10.5,3C10.224,3 10,2.776 10,2.5C10,2.224 10.224,2 10.5,2L11.5,2C12.881,2 14,3.119 14,4.5L14,5.5C14,5.776 13.776,6 13.5,6C13.224,6 13,5.776 13,5.5L13,4.5ZM13,11.5C13,12.328 12.328,13 11.5,13L10.5,13C10.224,13 10,13.224 10,13.5C10,13.776 10.224,14 10.5,14L11.5,14C12.881,14 14,12.881 14,11.5L14,10.5C14,10.224 13.776,10 13.5,10C13.224,10 13,10.224 13,10.5L13,11.5ZM3,11.5C3,12.328 3.672,13 4.5,13L5.75,13C6.026,13 6.25,13.224 6.25,13.5C6.25,13.776 6.026,14 5.75,14L4.5,14C3.119,14 2,12.881 2,11.5L2,10.25C2,9.974 2.224,9.75 2.5,9.75C2.776,9.75 3,9.974 3,10.25L3,11.5ZM5.5,4C4.672,4 4,4.672 4,5.5L4,10.5C4,11.328 4.672,12 5.5,12L10.5,12C11.328,12 12,11.328 12,10.5L12,5.5C12,4.672 11.328,4 10.5,4L5.5,4ZM5,5.5C5,5.224 5.224,5 5.5,5L10.5,5C10.776,5 11,5.224 11,5.5L11,10.5C11,10.776 10.776,11 10.5,11L5.5,11C5.224,11 5,10.776 5,10.5L5,5.5Z" style="fill:rgb(77,154,255);fill-rule:nonzero;"/>
    </g>
</svg>
